# xmcd CD database file
#
# Track frame offsets:
#	150
#	2240
#	14990
#	32616
#	50217
#	73027
#	99534
#	121949
#	141895
#	159463
#	176145
#	195488
#	212562
#
# Disc length: 2913 seconds
#
# Revision: 2
# Processed by: cddbd v1.4b41PL1 Copyright (c) Steve Scherf et al.
# Submitted via: Feurio! 1.60 - http://www.feurio.com
#
DISCID=a90b5f0d,bc0b5f0d
DTITLE=Crazytown - The Gift Of Game
DYEAR=1900
DGENRE=
TTITLE0=Intro
TTITLE1=Toxic
TTITLE2=Think Fast
TTITLE3=Darkside
TTITLE4=Black Cloud
TTITLE5=Butterfly (Remix)
TTITLE6=Only When I'm Drunk
TTITLE7=Hollywood Babylon
TTITLE8=Lollipop Porn
TTITLE9=Carzytown - Revolving Door
TTITLE10=Players (Only Love You When Th
TTITLE11=B-boy 2000
TTITLE12=Outro
EXTD=
EXTT0=
EXTT1=
EXTT2=
EXTT3=
EXTT4=
EXTT5=
EXTT6=
EXTT7=
EXTT8=
EXTT9=
EXTT10=
EXTT11=
EXTT12=
PLAYORDER=
